<svg width="83" height="61" viewBox="0 0 83 61" fill="none" xmlns="http://www.w3.org/2000/svg">
<path d="M41.0585 51.1032C47.0503 50.3044 54.6415 48.2454 62.2899 45.289C62.9841 45.0208 63.5581 44.5987 63.8717 44.1017C69.5675 35.051 73.2044 20.833 73.1689 11.3681C73.1689 10.4628 72.3425 9.53784 71.1808 9.08422C60.8265 5.01348 49.3933 2.1261 40.9067 1.21689C40.2361 1.14391 39.4728 1.14391 38.8023 1.21689C30.3156 2.1261 18.8825 5.01348 8.52809 9.08422C7.36643 9.53587 6.53808 10.4628 6.54005 11.3681C6.50455 20.833 10.1394 35.051 15.8373 44.1017C16.1509 44.5987 16.7248 45.0208 17.419 45.289C25.0675 48.2454 32.6607 50.3064 38.6504 51.1032C39.4038 51.2018 40.3051 51.2018 41.0585 51.1032Z" fill="url(#paint0_linear_136_8098)"/>
<path d="M40.5162 49.9356C46.573 48.841 54.0853 46.6222 61.6134 43.6501C61.9822 43.5041 62.282 43.2773 62.4418 43.015C67.7452 34.2759 71.2933 20.9395 71.4412 11.9282C71.4511 11.4588 71.0191 10.9677 70.4038 10.7271C60.2467 6.73725 49.0225 3.69405 40.4353 2.4042C40.0685 2.34897 39.6425 2.34897 39.2776 2.4042C30.6904 3.69405 19.4663 6.73528 9.30912 10.7271C8.6918 10.9677 8.26185 11.4588 8.27171 11.9282C8.41766 20.9375 11.9677 34.2739 17.2711 43.015C17.4309 43.2773 17.7307 43.5061 18.0995 43.6501C25.6276 46.6222 33.1419 48.841 39.1967 49.9356C39.607 50.0106 40.1099 50.0106 40.5201 49.9356H40.5162Z" fill="url(#paint1_linear_136_8098)"/>
<path d="M40.2717 49.3972C46.2713 48.0738 53.5489 45.7505 60.8246 42.7882C61.0514 42.6955 61.2309 42.5535 61.3255 42.3878C66.2266 33.7927 69.6425 21.113 69.9916 12.3207C70.0035 12.0288 69.7451 11.7231 69.3645 11.5732C59.5308 7.66421 48.7307 4.53818 40.2164 2.96431C39.9857 2.92092 39.7155 2.92092 39.4867 2.96431C30.9725 4.53818 20.1724 7.66618 10.3387 11.5732C9.96001 11.7231 9.69967 12.0308 9.71151 12.3207C10.0626 21.113 13.4766 33.7927 18.3776 42.3878C18.4723 42.5535 18.6537 42.6974 18.8786 42.7882C26.1542 45.7505 33.4319 48.0738 39.4315 49.3972C39.6898 49.4544 40.0074 49.4544 40.2638 49.3972H40.2717Z" fill="black"/>
<path d="M40.2637 48.9239C46.141 47.4723 53.1366 45.1332 60.1302 42.2379C60.3472 42.1472 60.5207 42.0072 60.6095 41.8454C65.1871 33.4298 68.467 21.3734 68.9817 12.7881C68.9995 12.5041 68.7529 12.2044 68.3861 12.0584C58.8976 8.27758 48.559 5.16733 40.2144 3.43766C39.9895 3.39033 39.7233 3.39033 39.4984 3.43766C31.1538 5.16733 20.8152 8.27758 11.3267 12.0584C10.9598 12.2044 10.7133 12.5022 10.7311 12.7881C11.2458 21.3734 14.5257 33.4318 19.1033 41.8454C19.1921 42.0072 19.3636 42.1492 19.5826 42.2379C26.5742 45.1332 33.5718 47.4723 39.4491 48.9239C39.7016 48.987 40.0132 48.987 40.2656 48.9239H40.2637Z" fill="url(#paint2_radial_136_8098)"/>
<path style="mix-blend-mode:color-dodge" d="M20.2015 55.6071C26.386 53.5486 29.7308 46.8664 27.6723 40.6819C25.6138 34.4974 18.9315 31.1527 12.7471 33.2112C6.56258 35.2697 3.21782 41.9519 5.27632 48.1364C7.33482 54.3209 14.0171 57.6656 20.2015 55.6071Z" fill="url(#paint3_radial_136_8098)"/>
<g style="mix-blend-mode:overlay" opacity="0.5">
<path d="M16.4251 44.7032C16.4034 53.7046 16.2575 61 16.2575 61C16.2575 61 16.149 53.7027 16.1707 44.7032C16.1924 35.7018 16.3384 28.4065 16.3384 28.4065C16.3384 28.4065 16.4488 35.7018 16.4251 44.7032Z" fill="white"/>
<path d="M16.2969 44.5751C25.2983 44.5987 32.5937 44.7427 32.5937 44.7427C32.5937 44.7427 25.2983 44.8531 16.2969 44.8314C7.29551 44.8078 0.00012207 44.6638 0.00012207 44.6638C0.00012207 44.6638 7.29748 44.5534 16.2969 44.5751Z" fill="white"/>
<path d="M16.3582 44.7664C11.8989 49.2039 8.22064 52.7382 8.22064 52.7382C8.22064 52.7382 11.7727 49.0777 16.2339 44.6401C20.6932 40.2026 24.3715 36.6683 24.3715 36.6683C24.3715 36.6683 20.8194 40.3288 16.3582 44.7664Z" fill="white"/>
<path d="M16.3601 44.6401C20.7977 49.0994 24.332 52.7777 24.332 52.7777C24.332 52.7777 20.6715 49.2256 16.2339 44.7644C11.7943 40.3051 8.26202 36.6249 8.26202 36.6249C8.26202 36.6249 11.9225 40.1789 16.3601 44.6382V44.6401Z" fill="white"/>
</g>
<path style="mix-blend-mode:color-dodge" d="M74.2219 17.3581C78.1625 16.0151 80.2682 11.732 78.9252 7.79142C77.5822 3.85088 73.299 1.74517 69.3585 3.08817C65.4179 4.43117 63.3122 8.71432 64.6552 12.6549C65.9982 16.5954 70.2814 18.7011 74.2219 17.3581Z" fill="url(#paint4_radial_136_8098)"/>
<g style="mix-blend-mode:overlay" opacity="0.5">
<path d="M71.7546 10.4116C71.7408 16.1627 71.6462 20.8231 71.6462 20.8231C71.6462 20.8231 71.5771 16.1627 71.5909 10.4116C71.6047 4.66045 71.6974 0 71.6974 0C71.6974 0 71.7684 4.66045 71.7527 10.4116H71.7546Z" fill="white"/>
<path d="M71.6738 10.3307C77.423 10.3445 82.0854 10.4372 82.0854 10.4372C82.0854 10.4372 77.4249 10.5082 71.6738 10.4924C65.9247 10.4786 61.2623 10.3859 61.2623 10.3859C61.2623 10.3859 65.9227 10.3169 71.6738 10.3307Z" fill="white"/>
<path d="M71.7133 10.453C68.8653 13.2871 66.5144 15.5453 66.5144 15.5453C66.5144 15.5453 68.7845 13.2082 71.6324 10.3721C74.4804 7.53796 76.8313 5.27972 76.8313 5.27972C76.8313 5.27972 74.5612 7.61882 71.7133 10.453Z" fill="white"/>
<path d="M71.7132 10.3721C74.5493 13.22 76.8056 15.571 76.8056 15.571C76.8056 15.571 74.4665 13.3009 71.6324 10.453C68.7962 7.60305 66.54 5.25409 66.54 5.25409C66.54 5.25409 68.8791 7.52416 71.7132 10.3741V10.3721Z" fill="white"/>
</g>
<g filter="url(#filter0_d_136_8098)">
<path d="M25.3949 32.8766H54.3141C54.9689 32.8766 55.4994 32.3461 55.4994 31.6913V15.7298C55.4994 15.075 54.9689 14.5445 54.3141 14.5445H25.3949C24.7401 14.5445 24.2095 15.075 24.2095 15.7298V31.6913C24.2095 32.3461 24.7401 32.8766 25.3949 32.8766ZM25.7873 16.1223H53.9196V30.3975H25.7873V16.1223Z" fill="url(#paint5_linear_136_8098)"/>
<path d="M43.8553 33.2711V33.3026C43.8553 33.5531 43.7251 33.7563 43.5654 33.7563H35.984C35.8242 33.7563 35.6941 33.5531 35.6941 33.3026V33.2711H21.2887V33.3796C21.2887 33.916 21.4603 34.413 21.7541 34.8173C22.1999 35.4346 22.9257 35.835 23.7442 35.835H55.9669C56.7854 35.835 57.5112 35.4346 57.9569 34.8173C58.2488 34.413 58.4224 33.916 58.4224 33.3796V33.2711H43.8553ZM25.6001 34.9081C25.4048 34.9081 25.245 34.7483 25.245 34.553C25.245 34.3578 25.4048 34.198 25.6001 34.198C25.7953 34.198 25.9551 34.3578 25.9551 34.553C25.9551 34.7483 25.7953 34.9081 25.6001 34.9081ZM26.8544 34.9081C26.6592 34.9081 26.4994 34.7483 26.4994 34.553C26.4994 34.3578 26.6592 34.198 26.8544 34.198C27.0497 34.198 27.2094 34.3578 27.2094 34.553C27.2094 34.7483 27.0497 34.9081 26.8544 34.9081ZM28.1088 34.9081C27.9135 34.9081 27.7538 34.7483 27.7538 34.553C27.7538 34.3578 27.9135 34.198 28.1088 34.198C28.304 34.198 28.4638 34.3578 28.4638 34.553C28.4638 34.7483 28.304 34.9081 28.1088 34.9081Z" fill="url(#paint6_linear_136_8098)"/>
<path d="M26.2411 18.4239H53.4701V16.5463H26.2411V18.4239ZM51.983 17.2386C52.1013 17.2386 52.196 17.3352 52.196 17.4516C52.196 17.568 52.0994 17.6646 51.983 17.6646C51.8667 17.6646 51.77 17.568 51.77 17.4516C51.77 17.3352 51.8667 17.2386 51.983 17.2386ZM51.3243 17.2386C51.4426 17.2386 51.5373 17.3352 51.5373 17.4516C51.5373 17.568 51.4406 17.6646 51.3243 17.6646C51.2079 17.6646 51.1113 17.568 51.1113 17.4516C51.1113 17.3352 51.2079 17.2386 51.3243 17.2386ZM50.632 17.2386C50.7504 17.2386 50.845 17.3352 50.845 17.4516C50.845 17.568 50.7484 17.6646 50.632 17.6646C50.5157 17.6646 50.419 17.568 50.419 17.4516C50.419 17.3352 50.5157 17.2386 50.632 17.2386ZM29.3809 17.4417C29.3809 17.3234 29.4776 17.2248 29.5979 17.2248H49.3402C49.4585 17.2248 49.5571 17.3214 49.5571 17.4417V17.4615C49.5571 17.5798 49.4605 17.6784 49.3402 17.6784H29.5979C29.4795 17.6784 29.3809 17.5818 29.3809 17.4615V17.4417ZM28.2745 17.4516V17.2425C28.2745 17.2129 28.306 17.1952 28.3317 17.209L28.5131 17.3135L28.6946 17.4181C28.7202 17.4319 28.7202 17.4693 28.6946 17.4851L28.5131 17.5896L28.3317 17.6942C28.306 17.708 28.2745 17.6902 28.2745 17.6607V17.4516ZM27.5349 17.4181L27.7163 17.3135L27.8978 17.209C27.9234 17.1952 27.955 17.2129 27.955 17.2425V17.6607C27.955 17.6902 27.9234 17.708 27.8978 17.6942L27.7163 17.5896L27.5349 17.4851C27.5093 17.4713 27.5093 17.4338 27.5349 17.4181Z" fill="url(#paint7_linear_136_8098)"/>
<path d="M43.0309 21.0391L38.3783 25.6917L35.4771 22.7905C34.8144 23.4532 34.8144 24.528 35.4771 25.1907L37.1772 26.8908L38.3783 28.0919L39.5794 26.8908L45.4331 21.0371C44.7704 20.3745 43.6955 20.3745 43.0328 21.0371L43.0309 21.0391Z" fill="url(#paint8_linear_136_8098)"/>
</g>
<path d="M25.3949 32.8766H54.3141C54.9689 32.8766 55.4994 32.3461 55.4994 31.6913V15.7298C55.4994 15.075 54.9689 14.5445 54.3141 14.5445H25.3949C24.7401 14.5445 24.2095 15.075 24.2095 15.7298V31.6913C24.2095 32.3461 24.7401 32.8766 25.3949 32.8766ZM25.7873 16.1223H53.9196V30.3975H25.7873V16.1223Z" fill="url(#paint9_linear_136_8098)"/>
<path d="M43.8553 33.2711V33.3026C43.8553 33.5531 43.7251 33.7563 43.5654 33.7563H35.984C35.8242 33.7563 35.6941 33.5531 35.6941 33.3026V33.2711H21.2887V33.3796C21.2887 33.916 21.4603 34.413 21.7541 34.8173C22.1999 35.4346 22.9257 35.835 23.7442 35.835H55.9669C56.7854 35.835 57.5112 35.4346 57.9569 34.8173C58.2488 34.413 58.4224 33.916 58.4224 33.3796V33.2711H43.8553ZM25.6001 34.9081C25.4048 34.9081 25.245 34.7483 25.245 34.553C25.245 34.3578 25.4048 34.198 25.6001 34.198C25.7953 34.198 25.9551 34.3578 25.9551 34.553C25.9551 34.7483 25.7953 34.9081 25.6001 34.9081ZM26.8544 34.9081C26.6592 34.9081 26.4994 34.7483 26.4994 34.553C26.4994 34.3578 26.6592 34.198 26.8544 34.198C27.0497 34.198 27.2094 34.3578 27.2094 34.553C27.2094 34.7483 27.0497 34.9081 26.8544 34.9081ZM28.1088 34.9081C27.9135 34.9081 27.7538 34.7483 27.7538 34.553C27.7538 34.3578 27.9135 34.198 28.1088 34.198C28.304 34.198 28.4638 34.3578 28.4638 34.553C28.4638 34.7483 28.304 34.9081 28.1088 34.9081Z" fill="url(#paint10_linear_136_8098)"/>
<path d="M26.2411 18.4239H53.4701V16.5463H26.2411V18.4239ZM51.983 17.2386C52.1013 17.2386 52.196 17.3352 52.196 17.4516C52.196 17.568 52.0994 17.6646 51.983 17.6646C51.8667 17.6646 51.77 17.568 51.77 17.4516C51.77 17.3352 51.8667 17.2386 51.983 17.2386ZM51.3243 17.2386C51.4426 17.2386 51.5373 17.3352 51.5373 17.4516C51.5373 17.568 51.4406 17.6646 51.3243 17.6646C51.2079 17.6646 51.1113 17.568 51.1113 17.4516C51.1113 17.3352 51.2079 17.2386 51.3243 17.2386ZM50.632 17.2386C50.7504 17.2386 50.845 17.3352 50.845 17.4516C50.845 17.568 50.7484 17.6646 50.632 17.6646C50.5157 17.6646 50.419 17.568 50.419 17.4516C50.419 17.3352 50.5157 17.2386 50.632 17.2386ZM29.3809 17.4417C29.3809 17.3234 29.4776 17.2248 29.5979 17.2248H49.3402C49.4585 17.2248 49.5571 17.3214 49.5571 17.4417V17.4615C49.5571 17.5798 49.4605 17.6784 49.3402 17.6784H29.5979C29.4795 17.6784 29.3809 17.5818 29.3809 17.4615V17.4417ZM28.2745 17.4516V17.2425C28.2745 17.2129 28.306 17.1952 28.3317 17.209L28.5131 17.3135L28.6946 17.4181C28.7202 17.4319 28.7202 17.4693 28.6946 17.4851L28.5131 17.5896L28.3317 17.6942C28.306 17.708 28.2745 17.6902 28.2745 17.6607V17.4516ZM27.5349 17.4181L27.7163 17.3135L27.8978 17.209C27.9234 17.1952 27.955 17.2129 27.955 17.2425V17.6607C27.955 17.6902 27.9234 17.708 27.8978 17.6942L27.7163 17.5896L27.5349 17.4851C27.5093 17.4713 27.5093 17.4338 27.5349 17.4181Z" fill="url(#paint11_linear_136_8098)"/>
<path d="M43.0309 21.0391L38.3783 25.6917L35.4771 22.7905C34.8144 23.4532 34.8144 24.528 35.4771 25.1907L37.1772 26.8908L38.3783 28.0919L39.5794 26.8908L45.4331 21.0371C44.7704 20.3745 43.6955 20.3745 43.0328 21.0371L43.0309 21.0391Z" fill="url(#paint12_linear_136_8098)"/>
<path style="mix-blend-mode:screen" d="M11.2952 14.9655C11.6404 17.1882 10.7213 19.1743 9.2421 19.4051C7.76487 19.6338 6.28568 18.0186 5.94251 15.7958C5.59736 13.5731 6.51643 11.587 7.99563 11.3563C9.47482 11.1275 10.952 12.7428 11.2952 14.9655Z" fill="url(#paint13_radial_136_8098)"/>
<path style="mix-blend-mode:screen" d="M64.9643 42.2497C65.412 43.3167 64.0946 44.8886 62.0217 45.7603C59.9489 46.6301 57.9036 46.4704 57.4559 45.4034C57.0082 44.3344 58.3257 42.7645 60.3985 41.8927C62.4714 41.023 64.5166 41.1827 64.9663 42.2497H64.9643Z" fill="url(#paint14_radial_136_8098)"/>
<path style="mix-blend-mode:screen" d="M51.3577 4.7275C51.0342 5.83196 49.0225 6.21261 46.8629 5.57952C44.7053 4.94642 43.2182 3.53823 43.5416 2.43574C43.8651 1.33127 45.8768 0.950625 48.0344 1.58372C50.1921 2.21681 51.6792 3.62501 51.3557 4.7275H51.3577Z" fill="url(#paint15_radial_136_8098)"/>
<path style="mix-blend-mode:screen" d="M25.1603 23.7353C24.259 23.7313 23.5371 21.905 23.547 19.6566C23.5568 17.4083 24.2945 15.5879 25.1958 15.5918C26.0971 15.5957 26.819 17.4221 26.8111 19.6704C26.8012 21.9188 26.0636 23.7392 25.1623 23.7353H25.1603Z" fill="url(#paint16_radial_136_8098)"/>
<path style="mix-blend-mode:screen" d="M56.9195 16.1105C56.9136 17.2603 54.109 18.1814 50.6536 18.1656C47.2002 18.1498 44.4035 17.2051 44.4075 16.0553C44.4134 14.9055 47.2179 13.9844 50.6714 14.0002C54.1268 14.016 56.9234 14.9587 56.9175 16.1105H56.9195Z" fill="url(#paint17_radial_136_8098)"/>
<defs>
<filter id="filter0_d_136_8098" x="18.2887" y="11.5445" width="57.1337" height="41.2905" filterUnits="userSpaceOnUse" color-interpolation-filters="sRGB">
<feFlood flood-opacity="0" result="BackgroundImageFix"/>
<feColorMatrix in="SourceAlpha" type="matrix" values="0 0 0 0 0 0 0 0 0 0 0 0 0 0 0 0 0 0 127 0" result="hardAlpha"/>
<feOffset dx="7" dy="7"/>
<feGaussianBlur stdDeviation="5"/>
<feColorMatrix type="matrix" values="0 0 0 0 0.215686 0 0 0 0 0.203922 0 0 0 0 0.247059 0 0 0 0.75 0"/>
<feBlend mode="normal" in2="BackgroundImageFix" result="effect1_dropShadow_136_8098"/>
<feBlend mode="normal" in="SourceGraphic" in2="effect1_dropShadow_136_8098" result="shape"/>
</filter>
<linearGradient id="paint0_linear_136_8098" x1="39.8555" y1="51.1762" x2="39.8555" y2="1.16166" gradientUnits="userSpaceOnUse">
<stop offset="0.08" stop-color="#965609"/>
<stop offset="0.38" stop-color="#CD8629"/>
<stop offset="0.54" stop-color="#EDA13B"/>
<stop offset="1" stop-color="#FFBF3E"/>
</linearGradient>
<linearGradient id="paint1_linear_136_8098" x1="39.8555" y1="49.9909" x2="39.8555" y2="2.36475" gradientUnits="userSpaceOnUse">
<stop stop-color="#FFBF3E"/>
<stop offset="0.46" stop-color="#EDA13B"/>
<stop offset="0.62" stop-color="#CD8629"/>
<stop offset="0.92" stop-color="#965609"/>
</linearGradient>
<radialGradient id="paint2_radial_136_8098" cx="0" cy="0" r="1" gradientUnits="userSpaceOnUse" gradientTransform="translate(39.7169 40.1291) rotate(-102.36) scale(41.7081 83.0033)">
<stop offset="0.72" stop-color="#DCDDDE" stop-opacity="0.08"/>
<stop offset="0.73" stop-color="white" stop-opacity="0.1"/>
<stop offset="0.74" stop-color="white" stop-opacity="0.15"/>
<stop offset="0.8" stop-color="white" stop-opacity="0.16"/>
<stop offset="0.84" stop-color="white" stop-opacity="0.2"/>
<stop offset="0.87" stop-color="white" stop-opacity="0.26"/>
<stop offset="0.9" stop-color="white" stop-opacity="0.34"/>
<stop offset="0.93" stop-color="white" stop-opacity="0.45"/>
<stop offset="0.96" stop-color="white" stop-opacity="0.59"/>
<stop offset="0.99" stop-color="white" stop-opacity="0.8"/>
</radialGradient>
<radialGradient id="paint3_radial_136_8098" cx="0" cy="0" r="1" gradientUnits="userSpaceOnUse" gradientTransform="translate(16.475 44.4105) rotate(-18.66) scale(11.802)">
<stop stop-color="white"/>
<stop offset="0.07" stop-color="#D1D1D1"/>
<stop offset="0.19" stop-color="#878787"/>
<stop offset="0.29" stop-color="#515151"/>
<stop offset="0.36" stop-color="#303030"/>
<stop offset="0.4" stop-color="#242424"/>
<stop offset="0.58" stop-color="#131313"/>
<stop offset="0.81" stop-color="#050505"/>
<stop offset="1"/>
</radialGradient>
<radialGradient id="paint4_radial_136_8098" cx="0" cy="0" r="1" gradientUnits="userSpaceOnUse" gradientTransform="translate(71.7901 10.2275) rotate(-18.66) scale(7.53995)">
<stop stop-color="white"/>
<stop offset="0.07" stop-color="#D1D1D1"/>
<stop offset="0.19" stop-color="#878787"/>
<stop offset="0.29" stop-color="#515151"/>
<stop offset="0.36" stop-color="#303030"/>
<stop offset="0.4" stop-color="#242424"/>
<stop offset="0.58" stop-color="#131313"/>
<stop offset="0.81" stop-color="#050505"/>
<stop offset="1"/>
</radialGradient>
<linearGradient id="paint5_linear_136_8098" x1="39.8555" y1="35.7699" x2="39.8555" y2="15.4714" gradientUnits="userSpaceOnUse">
<stop offset="0.08" stop-color="#965609"/>
<stop offset="0.38" stop-color="#CD8629"/>
<stop offset="0.54" stop-color="#EDA13B"/>
<stop offset="1" stop-color="#FFBF3E"/>
</linearGradient>
<linearGradient id="paint6_linear_136_8098" x1="39.8555" y1="35.7699" x2="39.8555" y2="15.4714" gradientUnits="userSpaceOnUse">
<stop offset="0.08" stop-color="#965609"/>
<stop offset="0.38" stop-color="#CD8629"/>
<stop offset="0.54" stop-color="#EDA13B"/>
<stop offset="1" stop-color="#FFBF3E"/>
</linearGradient>
<linearGradient id="paint7_linear_136_8098" x1="39.8556" y1="35.7699" x2="39.8556" y2="15.4714" gradientUnits="userSpaceOnUse">
<stop offset="0.08" stop-color="#965609"/>
<stop offset="0.38" stop-color="#CD8629"/>
<stop offset="0.54" stop-color="#EDA13B"/>
<stop offset="1" stop-color="#FFBF3E"/>
</linearGradient>
<linearGradient id="paint8_linear_136_8098" x1="40.2066" y1="35.7699" x2="40.2066" y2="15.4714" gradientUnits="userSpaceOnUse">
<stop offset="0.08" stop-color="#965609"/>
<stop offset="0.38" stop-color="#CD8629"/>
<stop offset="0.54" stop-color="#EDA13B"/>
<stop offset="1" stop-color="#FFBF3E"/>
</linearGradient>
<linearGradient id="paint9_linear_136_8098" x1="39.8555" y1="35.7699" x2="39.8555" y2="15.4714" gradientUnits="userSpaceOnUse">
<stop offset="0.08" stop-color="#965609"/>
<stop offset="0.38" stop-color="#CD8629"/>
<stop offset="0.54" stop-color="#EDA13B"/>
<stop offset="1" stop-color="#FFBF3E"/>
</linearGradient>
<linearGradient id="paint10_linear_136_8098" x1="39.8555" y1="35.7699" x2="39.8555" y2="15.4714" gradientUnits="userSpaceOnUse">
<stop offset="0.08" stop-color="#965609"/>
<stop offset="0.38" stop-color="#CD8629"/>
<stop offset="0.54" stop-color="#EDA13B"/>
<stop offset="1" stop-color="#FFBF3E"/>
</linearGradient>
<linearGradient id="paint11_linear_136_8098" x1="39.8556" y1="35.7699" x2="39.8556" y2="15.4714" gradientUnits="userSpaceOnUse">
<stop offset="0.08" stop-color="#965609"/>
<stop offset="0.38" stop-color="#CD8629"/>
<stop offset="0.54" stop-color="#EDA13B"/>
<stop offset="1" stop-color="#FFBF3E"/>
</linearGradient>
<linearGradient id="paint12_linear_136_8098" x1="40.2066" y1="35.7699" x2="40.2066" y2="15.4714" gradientUnits="userSpaceOnUse">
<stop offset="0.08" stop-color="#965609"/>
<stop offset="0.38" stop-color="#CD8629"/>
<stop offset="0.54" stop-color="#EDA13B"/>
<stop offset="1" stop-color="#FFBF3E"/>
</linearGradient>
<radialGradient id="paint13_radial_136_8098" cx="0" cy="0" r="1" gradientUnits="userSpaceOnUse" gradientTransform="translate(8.71832 15.3649) rotate(-8.81) scale(2.72872 4.07271)">
<stop stop-color="#CE9F48"/>
<stop offset="0.07" stop-color="#C08F41"/>
<stop offset="0.23" stop-color="#A36E32"/>
<stop offset="0.28" stop-color="#8E5F2B"/>
<stop offset="0.39" stop-color="#62421E"/>
<stop offset="0.51" stop-color="#3F2A13"/>
<stop offset="0.63" stop-color="#23170A"/>
<stop offset="0.76" stop-color="#0F0A04"/>
<stop offset="0.88" stop-color="#030201"/>
<stop offset="1"/>
</radialGradient>
<radialGradient id="paint14_radial_136_8098" cx="0" cy="0" r="1" gradientUnits="userSpaceOnUse" gradientTransform="translate(61.3327 44.1078) rotate(-22.78) scale(4.07272 2.11781)">
<stop stop-color="#CE9F48"/>
<stop offset="0.07" stop-color="#C08F41"/>
<stop offset="0.23" stop-color="#A36E32"/>
<stop offset="0.28" stop-color="#8E5F2B"/>
<stop offset="0.39" stop-color="#62421E"/>
<stop offset="0.51" stop-color="#3F2A13"/>
<stop offset="0.63" stop-color="#23170A"/>
<stop offset="0.76" stop-color="#0F0A04"/>
<stop offset="0.88" stop-color="#030201"/>
<stop offset="1"/>
</radialGradient>
<radialGradient id="paint15_radial_136_8098" cx="0" cy="0" r="1" gradientUnits="userSpaceOnUse" gradientTransform="translate(47.4597 3.54787) rotate(16.34) scale(4.07272 2.07708)">
<stop stop-color="#CE9F48"/>
<stop offset="0.07" stop-color="#C08F41"/>
<stop offset="0.23" stop-color="#A36E32"/>
<stop offset="0.28" stop-color="#8E5F2B"/>
<stop offset="0.39" stop-color="#62421E"/>
<stop offset="0.51" stop-color="#3F2A13"/>
<stop offset="0.63" stop-color="#23170A"/>
<stop offset="0.76" stop-color="#0F0A04"/>
<stop offset="0.88" stop-color="#030201"/>
<stop offset="1"/>
</radialGradient>
<radialGradient id="paint16_radial_136_8098" cx="0" cy="0" r="1" gradientUnits="userSpaceOnUse" gradientTransform="translate(25.2213 19.6603) rotate(90.25) scale(4.07271 1.62909)">
<stop stop-color="#CE9F48"/>
<stop offset="0.07" stop-color="#C08F41"/>
<stop offset="0.23" stop-color="#A36E32"/>
<stop offset="0.28" stop-color="#8E5F2B"/>
<stop offset="0.39" stop-color="#62421E"/>
<stop offset="0.51" stop-color="#3F2A13"/>
<stop offset="0.63" stop-color="#23170A"/>
<stop offset="0.76" stop-color="#0F0A04"/>
<stop offset="0.88" stop-color="#030201"/>
<stop offset="1"/>
</radialGradient>
<radialGradient id="paint17_radial_136_8098" cx="0" cy="0" r="1" gradientUnits="userSpaceOnUse" gradientTransform="translate(50.7863 16.0791) rotate(0.25) scale(6.27198 2.07709)">
<stop stop-color="#CE9F48"/>
<stop offset="0.07" stop-color="#C08F41"/>
<stop offset="0.23" stop-color="#A36E32"/>
<stop offset="0.28" stop-color="#8E5F2B"/>
<stop offset="0.39" stop-color="#62421E"/>
<stop offset="0.51" stop-color="#3F2A13"/>
<stop offset="0.63" stop-color="#23170A"/>
<stop offset="0.76" stop-color="#0F0A04"/>
<stop offset="0.88" stop-color="#030201"/>
<stop offset="1"/>
</radialGradient>
</defs>
</svg>
